Coordinates
version=1
nRows=16
nColumns=40
inDegrees=yes

Units are S.I. units (second, meters, Newtons, ...)
Angles are in degrees.

endheader
time	pelvis_tilt	pelvis_list	pelvis_rotation	pelvis_tx	pelvis_ty	pelvis_tz	hip_flexion_r	hip_adduction_r	hip_rotation_r	knee_angle_r	knee_angle_r_beta	ankle_angle_r	subtalar_angle_r	mtp_angle_r	hip_flexion_l	hip_adduction_l	hip_rotation_l	knee_angle_l	knee_angle_l_beta	ankle_angle_l	subtalar_angle_l	mtp_angle_l	lumbar_extension	lumbar_bending	lumbar_rotation	arm_flex_r	arm_add_r	arm_rot_r	elbow_flex_r	pro_sup_r	wrist_flex_r	wrist_dev_r	arm_flex_l	arm_add_l	arm_rot_l	elbow_flex_l	pro_sup_l	wrist_flex_l	wrist_dev_l
     57.50000000	     -7.48257622	     -7.09809420	      1.90376369	      0.97720975	      0.91650294	      0.47979207	     -0.02011954	      7.28582839	    -18.78456215	      6.37143451	      6.37143451	     15.68432084	     11.71617478	     -2.52937669	     37.39827931	     -9.97069712	     -2.02491150	     18.54637172	     18.54637172	      5.25252547	     -7.13744585	     14.25778980	    -10.24322243	      8.19179074	      5.97579794	     47.00624000	    -13.25295812	     -0.67020114	     91.28214200	     44.15376860	      0.00000000	      0.00000000	    -19.52306266	     -5.27559789	      4.89635405	     24.03400092	     45.04759727	      0.00000000	      0.00000000
     57.51200000	     -7.60993112	     -7.14662952	      1.69038572	      0.97808869	      0.91463851	      0.47845179	     -0.33422340	      7.17088521	    -18.43981112	      6.84091954	      6.84091954	     16.51052951	     11.53737858	     -2.20520059	     36.93207231	     -9.88784790	     -2.35600441	     18.61456118	     18.61456118	      4.39644312	     -7.57728987	     12.95251563	     -9.93542543	      8.14083941	      5.92617485	     46.89971467	    -13.17392564	     -0.24452540	     94.98529122	     44.04616643	      0.00000000	      0.00000000	    -20.11411399	     -5.24305629	      4.97005656	     24.31134660	     45.02916794	      0.00000000	      0.00000000
     57.52400000	     -7.63911878	     -7.12662818	      1.40724193	      0.97917714	      0.91297538	      0.47708413	     -0.75217863	      6.97698732	    -17.95920352	      7.36140355	      7.36140355	     17.52791605	     11.26165169	     -1.18409230	     36.27378830	     -9.76843212	     -2.55996839	     18.71151895	     18.71151895	      2.64518631	     -8.65426343	      9.62011256	     -9.75057874	      7.95014551	      6.81924709	     46.37425911	    -14.14532368	     -0.49517290	     99.03765444	     43.99350329	      0.00000000	      0.00000000	    -20.12287410	     -5.51452132	      5.31702457	     24.62953234	     44.99147157	      0.00000000	      0.00000000
     57.53600000	     -7.63337238	     -7.02262496	      1.19189589	      0.98017785	      0.91143969	      0.47560951	     -1.13230653	      6.66221595	    -17.55073514	      7.97842674	      7.97842674	     18.20956846	     10.97427814	     -1.27976205	     35.91532262	     -9.61009947	     -2.72471650	     19.54965638	     19.54965638	      2.16085663	     -9.32778107	      9.14645895	     -9.52308642	      7.66605430	      6.33794605	     46.67986639	    -13.45329251	     -0.26450611	    100.51020741	     43.95154676	      0.00000000	      0.00000000	    -20.35350689	     -5.42467059	      5.44777785	     24.42269595	     44.96984744	      0.00000000	      0.00000000
     57.54800000	     -7.71405534	     -6.87842999	      0.95275435	      0.98119915	      0.91002339	      0.47393295	     -1.24259398	      6.26733359	    -16.84725967	      8.93498300	      8.93498300	     19.09708089	     10.03804130	     -0.60445953	     35.46996860	     -9.33231253	     -2.54346100	     20.02165766	     20.02165766	      0.60228742	    -10.84062005	      6.50809656	     -9.31142006	      7.39737139	      6.71335326	     45.99668420	    -13.99140587	     -0.18429596	    104.29511955	     43.89091707	      0.00000000	      0.00000000	    -20.07842178	     -5.58950243	      5.81404378	     24.37127143	     44.93647910	      0.00000000	      0.00000000
     57.56000000	     -7.63609073	     -6.64415259	      0.79852082	      0.98235131	      0.90920288	      0.47210819	     -1.78370763	      5.81666040	    -16.54443398	      9.35298810	      9.35298810	     19.52023928	      9.87582174	     -0.71561704	     35.09738547	     -9.06135925	     -2.66394123	     21.00097803	     21.00097803	      0.45991280	    -11.35621910	      6.28201789	     -9.11993152	      6.98996228	      6.34687914	     45.86364882	    -13.70400320	     -0.07168379	    104.81464933	     43.87400272	      0.00000000	      0.00000000	    -19.81492293	     -5.58467197	      5.86292955	     24.38292446	     44.93454715	      0.00000000	      0.00000000
     57.57200000	     -7.67109435	     -6.44490681	      0.63704876	      0.98308226	      0.90827248	      0.47013720	     -1.52574062	      5.25053667	    -15.80398611	     11.04204178	     11.04204178	     20.26823005	      8.48778352	     -0.48951917	     34.94700614	     -8.71003468	     -2.21442339	     22.00487856	     22.00487856	     -0.24781210	    -12.89985127	      4.81267091	     -9.07035064	      6.68022098	      6.55421838	     44.90573337	    -14.04866550	     -0.04663582	    108.86088309	     43.80055048	      0.00000000	      0.00000000	    -19.13454413	     -5.69538370	      6.26318634	     24.00245016	     44.90361541	      0.00000000	      0.00000000
     57.58400000	     -7.61056648	     -6.21627151	      0.54864307	      0.98386790	      0.90795453	      0.46794531	     -1.54819891	      4.65598032	    -15.50756526	     12.35234784	     12.35234784	     20.62772126	      7.85498675	     -0.70178029	     34.76984779	     -8.39193554	     -2.06390317	     23.13999170	     23.13999170	     -0.08372006	    -13.58407848	      4.39863908	     -9.01158780	      6.34698246	      6.09495297	     44.36447631	    -13.70127878	      0.12845134	    110.27276845	     43.76554077	      0.00000000	      0.00000000	    -18.56619317	     -5.67925009	      6.42870673	     23.90391230	     44.89341681	      0.00000000	      0.00000000
     57.59600000	     -7.56733503	     -5.92588773	      0.49005116	      0.98453116	      0.90806519	      0.46554625	     -1.39329283	      3.95500117	    -15.15064099	     13.92584436	     13.92584436	     20.86261595	      7.01425047	     -1.02198561	     34.52291347	     -7.96928163	     -1.88228198	     24.06902927	     24.06902927	      0.28299169	    -14.27856585	      4.19502701	     -8.97432248	      5.94439926	      5.87663954	     43.36578299	    -13.82489376	      0.30156077	    112.02444124	     43.72145944	      0.00000000	      0.00000000	    -17.65677872	     -5.75956820	      6.58302388	     23.84024211	     44.89332955	      0.00000000	      0.00000000
     57.60800000	     -7.46320568	     -5.66092507	      0.47424851	      0.98519405	      0.90870902	      0.46292934	     -1.29538619	      3.27120536	    -14.80314610	     15.46786671	     15.46786671	     20.75929264	      6.18283041	     -1.78624639	     34.16174164	     -7.53528754	     -1.64551505	     24.88217938	     24.88217938	      1.06677283	    -14.78717943	      4.66717618	     -9.04399428	      5.61321089	      6.52002700	     41.44174465	    -14.92757618	     -0.26099679	    114.95331321	     43.71075585	      0.00000000	      0.00000000	    -15.95652309	     -5.99005095	      7.12579289	     23.15853562	     44.86391615	      0.00000000	      0.00000000
     57.62000000	     -7.38512653	     -5.39649563	      0.49307384	      0.98567432	      0.90965464	      0.46014543	     -0.94879117	      2.48941622	    -14.67453368	     17.40600629	     17.40600629	     20.59600636	      5.54427509	     -2.41617172	     33.74564599	     -7.11611630	     -1.61078107	     25.49263278	     25.49263278	      1.76561872	    -15.06157105	      4.56796095	     -9.05025274	      5.31620709	      6.07323396	     40.18601230	    -14.86610917	     -0.02547128	    115.66407673	     43.69291227	      0.00000000	      0.00000000	    -14.88368384	     -6.04358308	      7.26185006	     23.27649291	     44.86778311	      0.00000000	      0.00000000
     57.63200000	     -7.30777528	     -5.17384897	      0.53653012	      0.98608497	      0.91094081	      0.45722319	     -0.53100752	      1.73288642	    -14.53926463	     19.38227455	     19.38227455	     19.71520890	      4.68885527	     -4.51787579	     33.25447128	     -6.68511742	     -1.47655190	     25.95804444	     25.95804444	      2.85231572	    -15.25336700	      5.38982373	     -9.11743793	      5.07930963	      6.49993935	     37.98227181	    -15.83225918	     -0.37017550	    117.73572779	     43.69587519	      0.00000000	      0.00000000	    -13.10656156	     -6.19227370	      7.65059506	     23.01192994	     44.86441871	      0.00000000	      0.00000000
     57.64400000	     -7.09777278	     -5.02677244	      0.59748415	      0.98656470	      0.91265577	      0.45426984	     -0.10821802	      0.99783914	    -14.45883593	     21.66871929	     21.66871929	     19.12828019	      4.08220012	     -5.16865700	     32.47384678	     -6.36105140	     -1.49233908	     26.15014623	     26.15014623	      3.64355430	    -15.27644144	      5.13773821	     -9.26658092	      4.96137740	      5.98031968	     36.31115265	    -15.67907474	     -0.06227139	    117.69906318	     43.68792119	      0.00000000	      0.00000000	    -11.94826547	     -6.28545223	      7.68300527	     23.34087385	     44.88401514	      0.00000000	      0.00000000
     57.65600000	     -7.25421159	     -4.76371354	      0.60904641	      0.98656308	      0.91394079	      0.45125906	      1.16344811	      0.01399076	    -14.31284015	     24.70855398	     24.70855398	     18.15659226	      3.10038545	     -6.68219773	     31.95100063	     -5.91262774	     -1.63753720	     26.04846594	     26.04846594	      4.33655832	    -15.22756168	      5.06112996	     -9.05026225	      4.71711210	      5.80184154	     34.34637344	    -16.11762427	      0.10839165	    117.99377167	     43.68091493	      0.00000000	      0.00000000	    -10.54231490	     -6.38334808	      7.66483532	     23.80151184	     44.92057573	      0.00000000	      0.00000000
     57.66800000	     -7.19612062	     -4.58920454	      0.61875071	      0.98667860	      0.91563411	      0.44836465	      2.22705217	     -0.85761269	    -14.09154068	     27.72378754	     27.72378754	     16.84148023	      2.10010731	     -8.11205985	     31.14828245	     -5.57722442	     -1.82163396	     25.87885056	     25.87885056	      5.00270265	    -15.11341991	      4.92308936	     -9.08531068	      4.56673008	      5.60814124	     32.09335546	    -16.38666925	      0.29695988	    117.95228515	     43.67869415	      0.00000000	      0.00000000	     -9.10379673	     -6.53501973	      7.58597029	     24.35856025	     44.96582787	      0.00000000	      0.00000000
     57.68000000	     -7.21071293	     -4.43801286	      0.62957931	      0.98660566	      0.91714080	      0.44555040	      3.61494634	     -1.72864365	    -13.79308372	     31.09011106	     31.09011106	     15.14117617	      0.78970894	     -9.75767444	     30.36640847	     -5.26153260	     -2.00555668	     25.58073490	     25.58073490	      5.63595410	    -14.91166660	      4.72152063	     -9.03166468	      4.43887596	      5.51661107	     29.71159081	    -16.73967750	      0.37835135	    117.67353499	     43.68690119	      0.00000000	      0.00000000	     -7.61694043	     -6.70051577	      7.43201833	     25.06990169	     45.02341299	      0.00000000	      0.00000000
